:version 1.10
:name ASF
:units
  mass 1
  length 1
  angle deg
:documentation
  ASF file generated by Kaydara
:root
  axis xyz
  order  tx ty tz rx ry rz
  position 0 0 0
  orientation 0 0 0
:bonedata
  begin
    id 1
    name SpineDummy
    direction 0.999998 -0.00179978 1.38929e-006
    length 3.60008
    axis 0 0 0 xyz
  end
  begin
    id 2
    name Spine
    direction 0.964365 0.262802 0.0305839
    length 8.13928
    axis 1.33928 -1.75354 15.2838 xyz
    dof rx ry rz
  end
  begin
    id 3
    name Spine1
    direction 0.811168 0.572065 0.12144
    length 7.14954
    axis 2.2224 -6.9761 35.2157 xyz
    dof rx ry rz
  end
  begin
    id 4
    name Neck
    direction 0 0 0
    length 0
    axis 2.2224 -6.9761 35.2157 xyz
    dof rx ry rz
  end
  begin
    id 5
    name HeadDummy
    direction 0.810939 0.572387 0.121455
    length 3.55534
    axis 2.2224 -6.9761 35.2157 xyz
  end
  begin
    id 6
    name Head
    direction 0.998226 -0.000232542 0.0595419
    length 7.35666
    axis -3.03688 -3.41352 -0.0133467 xyz
    dof rx ry rz
  end
  begin
    id 7
    name R_ClavicleDummy
    direction 0.531669 -0.194489 -0.824319
    length 2.49392
    axis 2.2224 -6.9761 35.2157 xyz
  end
  begin
    id 8
    name R_Clavicle
    direction -0.155119 0.0480802 -0.986725
    length 4.485
    axis -54.2764 80.6538 162.779 xyz
    dof rx ry rz
  end
  begin
    id 9
    name R_UpperArm
    direction -0.955567 0.200068 -0.216484
    length 10.1122
    axis -72.9943 12.5026 168.175 xyz
    dof rx ry rz
  end
  begin
    id 10
    name R_Forearm
    direction -0.61433 0.385743 0.688332
    length 9.39148
    axis -117.015 -43.4982 147.875 xyz
    dof rx ry rz
  end
  begin
    id 11
    name R_Hand
    direction -0.699429 0.0170333 0.714499
    length 3.66324
    axis -45.0303 -36.7097 175.478 xyz
    dof rx ry rz
  end
  begin
    id 12
    name L_ClavicleDummy
    direction 0.40287 -0.36502 0.839319
    length 2.49392
    axis 2.2224 -6.9761 35.2157 xyz
  end
  begin
    id 13
    name L_Clavicle
    direction -0.231271 -0.0726419 0.970174
    length 4.485
    axis 18.4357 -75.9711 -162.563 xyz
    dof rx ry rz
  end
  begin
    id 14
    name L_UpperArm
    direction -0.917494 0.144359 0.370629
    length 10.1122
    axis 56.0417 -21.7544 171.058 xyz
    dof rx ry rz
  end
  begin
    id 15
    name L_Forearm
    direction -0.496786 0.615074 -0.612281
    length 9.39148
    axis 89.8094 37.7546 128.927 xyz
    dof rx ry rz
  end
  begin
    id 16
    name L_Hand
    direction -0.409932 0.64962 -0.640274
    length 3.66324
    axis -0.424369 32.133 128.52 xyz
    dof rx ry rz
  end
  begin
    id 17
    name L_ThighDummy
    direction -1.84081e-006 1.87549e-006 1
    length 3.13049
    axis 0 0 0 xyz
  end
  begin
    id 18
    name L_Thigh
    direction -0.947739 0.307978 0.083308
    length 17.9961
    axis 173.219 -4.77873 161.998 xyz
    dof rx ry rz
  end
  begin
    id 19
    name L_Calf
    direction -0.728814 -0.684427 0.0197583
    length 13.3367
    axis 167.331 -1.13214 -136.799 xyz
    dof rx ry rz
  end
  begin
    id 20
    name L_Foot
    direction -0.9028 0.418719 0.0981191
    length 5.8674
    axis 163.436 11.5135 -155.37 xyz
    dof rx ry rz
  end
  begin
    id 21
    name L_Toe0
    direction -0.35341 0.886259 0.299411
    length 4.75286
    axis 169.316 -17.4222 111.74 xyz
    dof rx ry rz
  end
  begin
    id 22
    name R_ThighDummy
    direction 9.32778e-007 -8.82053e-007 -1
    length 3.13049
    axis 0 0 0 xyz
  end
  begin
    id 23
    name R_Thigh
    direction -0.925064 0.37528 -0.0585023
    length 17.9961
    axis -178.698 3.35385 157.919 xyz
    dof rx ry rz
  end
  begin
    id 24
    name R_Calf
    direction -0.68969 -0.718776 -0.0876886
    length 13.3367
    axis -160.504 5.03065 -133.817 xyz
    dof rx ry rz
  end
  begin
    id 25
    name R_Foot
    direction -0.857405 0.418858 -0.299022
    length 5.8674
    axis -161.328 4.38911 -154.413 xyz
    dof rx ry rz
  end
  begin
    id 26
    name R_Toe0
    direction -0.100745 0.952789 -0.286433
    length 4.75286
    axis 171.683 16.6445 96.0359 xyz
    dof rx ry rz
  end
:hierarchy
  begin
    root SpineDummy L_ThighDummy R_ThighDummy
    SpineDummy Spine
    Spine Spine1
    Spine1 Neck
    Neck HeadDummy R_ClavicleDummy L_ClavicleDummy
    HeadDummy Head
    R_ClavicleDummy R_Clavicle
    R_Clavicle R_UpperArm
    R_UpperArm R_Forearm
    R_Forearm R_Hand
    L_ClavicleDummy L_Clavicle
    L_Clavicle L_UpperArm
    L_UpperArm L_Forearm
    L_Forearm L_Hand
    L_ThighDummy L_Thigh
    L_Thigh L_Calf
    L_Calf L_Foot
    L_Foot L_Toe0
    R_ThighDummy R_Thigh
    R_Thigh R_Calf
    R_Calf R_Foot
    R_Foot R_Toe0
  end

:SAMPLES-PER-SECOND 30
:FULLY-SPECIFIED
:DEGREES
410
root  4.14161 23.9204 4.26645 -78.2166 21.1574 89.3947
Spine  13.8624 17.5097 45.1734
Spine1  3.5393 8.92861 1.23989
Neck  3.97569e-016 0 -2.38542e-015
Head  3.07476 -7.53357 -9.40327
R_Clavicle  -1.69939 15.0763 -4.4807
R_UpperArm  45.4933 28.8402 45.8078
R_Forearm  -16.5588 -4.60443 -9.42587
R_Hand  -10.765 31.3458 -50.4661
L_Clavicle  -0.81525 -28.0258 4.18822
L_UpperArm  37.4082 -26.208 -37.148
L_Forearm  66.834 -28.0228 -37.9562
L_Hand  0.163941 -8.46461 -5.47395
L_Thigh  -33.7141 -24.063 21.6717
L_Calf  -12.2197 3.66075 -28.1571
L_Foot  12.2318 5.41524 38.5668
L_Toe0  6.93262 -2.56315 12.3564
R_Thigh  -7.18552 17.6939 62.4675
R_Calf  -4.57272 2.49439 7.96765
R_Foot  2.20329 -6.07353 -24.1266
R_Toe0  -1.78619 -0.273041 -17.3222
411
root  4.55432 23.2949 4.1133 -75.5579 21.4422 90.9136
Spine  16.8364 18.3992 47.995
Spine1  5.61088 6.13539 -0.0702039
Neck  3.97569e-016 0 -2.38542e-015
Head  -0.824118 -8.03075 -8.75225
R_Clavicle  -2.27051 10.075 -7.44928
R_UpperArm  45.4148 24.6464 58.5617
R_Forearm  -12.2728 -6.82054 -8.7199
R_Hand  -23.2598 29.1425 -83.7924
L_Clavicle  -1.33176 -27.5265 5.58082
L_UpperArm  37.7257 -24.4823 -42.2568
L_Forearm  69.2964 -29.7079 -41.247
L_Hand  0.0751296 -6.8982 -4.66046
L_Thigh  -31.5329 -23.7246 22.6028
L_Calf  -13.2089 4.13911 -32.1817
L_Foot  11.9378 3.80192 40.7928
L_Toe0  6.45545 -2.48695 12.8359
R_Thigh  -6.70952 17.9192 65.2482
R_Calf  -3.18797 1.47055 4.76692
R_Foot  2.26888 -4.80228 -23.9478
R_Toe0  -1.78621 -0.273076 -17.3222
412
root  5.10062 22.891 3.9125 -71.5884 19.8361 93.0918
Spine  16.9103 18.5037 48.4615
Spine1  5.738 5.06761 -0.20229
Neck  3.97569e-016 0 -2.38542e-015
Head  -0.933046 -4.97443 -7.26703
R_Clavicle  -2.50939 6.7779 -9.4087
R_UpperArm  44.9916 23.9767 60.5775
R_Forearm  -4.95073 -8.60607 -8.4044
R_Hand  -26.0171 28.9729 -90.8166
L_Clavicle  -1.83524 -25.8942 7.07648
L_UpperArm  37.6299 -24.2096 -43.5121
L_Forearm  68.647 -30.1416 -42.1387
L_Hand  0.0181613 -5.62687 -4.58558
L_Thigh  -28.4002 -21.978 21.635
L_Calf  -12.8513 4.59388 -36.1745
L_Foot  11.6625 2.9163 41.7562
L_Toe0  6.21965 -2.61696 14.1189
R_Thigh  -5.31322 17.2824 65.6511
R_Calf  -0.983031 0.867114 2.87591
R_Foot  2.31932 -4.37448 -24.0695
R_Toe0  -1.78625 -0.273112 -17.3222
413
root  5.63203 22.7634 3.64766 -67.1574 16.772 94.7976
Spine  15.1788 18.2519 48.883
Spine1  4.02629 4.1785 -3.14574
Neck  3.97569e-016 0 -2.38542e-015
Head  1.84128 -1.88977 -4.88012
R_Clavicle  -2.65433 6.12314 -10.2468
R_UpperArm  46.9621 19.8604 55.5706
R_Forearm  0.415123 -2.09957 -13.5382
R_Hand  -18.9742 39.1669 -64.1657
L_Clavicle  -1.76173 -22.0292 7.2246
L_UpperArm  37.7184 -24.1445 -41.1005
L_Forearm  64.5883 -29.0148 -39.8603
L_Hand  -0.0229051 -4.81134 -5.41794
L_Thigh  -24.4703 -19.9829 18.8736
L_Calf  -11.8403 4.87388 -38.7289
L_Foot  11.6174 2.72346 42.0228
L_Toe0  5.89367 -2.66911 15.1826
R_Thigh  -3.54758 15.7578 63.927
R_Calf  1.57175 0.527214 1.80447
R_Foot  2.22582 -3.96629 -23.1943
R_Toe0  -1.78629 -0.273149 -17.3222
414
root  6.06159 23.0213 3.42805 -63.4509 13.729 95.4373
Spine  13.8737 17.9772 49.6607
Spine1  2.59327 2.3092 -8.70017
Neck  3.97569e-016 0 -2.38542e-015
Head  5.89376 -1.61013 -4.15332
R_Clavicle  -2.55255 4.99943 -10.3128
R_UpperArm  47.5504 23.6676 39.3779
R_Forearm  -6.57872 -10.853 -4.21803
R_Hand  -1.17028 31.6419 -19.7998
L_Clavicle  -1.27267 -16.9548 6.177
L_UpperArm  37.7223 -22.4878 -38.371
L_Forearm  55.8859 -24.9129 -32.468
L_Hand  -0.119593 -3.73262 -8.15289
L_Thigh  -20.5948 -18.436 15.5978
L_Calf  -11.0055 4.86648 -38.6402
L_Foot  11.9119 3.20992 41.9293
L_Toe0  4.95554 -2.29008 15.0164
R_Thigh  -2.4865 14.1104 60.6436
R_Calf  2.78519 0.710281 2.36064
R_Foot  2.117 -3.66842 -22.2354
R_Toe0  -1.78635 -0.273186 -17.3222
415
root  6.33577 23.696 3.23419 -60.4204 11.5496 94.9842
Spine  13.0875 18.0966 47.6089
Spine1  2.59148 0.195695 -10.6899
Neck  3.97569e-016 0 -2.38542e-015
Head  11.7074 -2.85709 -6.96374
R_Clavicle  -2.1837 3.19663 -9.48862
R_UpperArm  40.7007 34.6088 18.0861
R_Forearm  -21.394 -42.8628 28.1291
R_Hand  -0.467189 11.4977 -15.2215
L_Clavicle  -0.402795 -12.8808 2.60556
L_UpperArm  37.929 -20.3027 -38.4066
L_Forearm  45.2567 -16.7042 -20.3077
L_Hand  -0.371643 -1.86877 -11.4937
L_Thigh  -17.0234 -17.7727 12.1271
L_Calf  -9.38149 4.52947 -35.5303
L_Foot  12.5112 4.49731 41.1707
L_Toe0  4.26269 -1.87209 13.8461
R_Thigh  -2.88749 12.3873 56.1769
R_Calf  2.6363 1.43795 4.60571
R_Foot  2.17767 -3.06511 -22.2871
R_Toe0  -1.78642 -0.273225 -17.3223
416
root  6.52527 24.8743 3.06271 -57.08 9.8617 94.0863
Spine  12.1219 17.061 44.6693
Spine1  2.29616 0.993904 -12.6773
Neck  3.97569e-016 0 -2.38542e-015
Head  22.1647 -3.97199 -7.58547
R_Clavicle  -2.24144 1.75618 -10.4249
R_UpperArm  36.4984 32.9998 14.7554
R_Forearm  -30.319 -51.0725 39.0051
R_Hand  -0.400075 9.23098 -14.7552
L_Clavicle  -0.113776 -4.41806 1.5185
L_UpperArm  43.144 -17.4955 -37.4898
L_Forearm  38.4313 -6.58393 -7.68618
L_Hand  -0.662756 0.524533 -12.1736
L_Thigh  -13.0836 -17.5632 8.35383
L_Calf  -6.09522 3.84736 -29.6392
L_Foot  13.0354 6.86287 38.3217
L_Toe0  4.59837 -1.83389 12.6082
R_Thigh  -5.34408 10.7096 50.0355
R_Calf  4.08531 2.92776 9.2635
R_Foot  2.15865 -2.4639 -21.7383
R_Toe0  -1.78649 -0.273264 -17.3223
417
root  6.65093 26.4809 2.88141 -52.3604 8.47989 93.1897
Spine  10.9314 17.4375 39.5167
Spine1  1.19227 1.0486 -11.4599
Neck  3.97569e-016 0 -2.38542e-015
Head  32.7533 -4.41928 -5.75253
R_Clavicle  -1.56699 -1.50923 -8.69122
R_UpperArm  34.0745 28.7333 14.6964
R_Forearm  -27.3763 -51.7084 35.9942
R_Hand  -0.262844 10.2667 -14.2443
L_Clavicle  0.139413 1.94733 -1.39949
L_UpperArm  48.3653 -14.3068 -37.0079
L_Forearm  35.9053 3.438 3.95965
L_Hand  -0.668528 1.89022 -10.1009
L_Thigh  -8.78753 -17.1833 4.1161
L_Calf  -2.10882 2.85391 -21.6485
L_Foot  13.3495 10.6238 33.0978
L_Toe0  4.59506 -1.73461 11.8347
R_Thigh  -9.30069 8.33015 42.464
R_Calf  6.77028 5.01682 15.9626
R_Foot  1.92812 -1.23611 -18.6946
R_Toe0  -1.78657 -0.273303 -17.3224
418
root  6.56143 28.2199 2.49264 -46.1701 7.80875 92.4191
Spine  8.38939 18.2017 32.6517
Spine1  -0.576101 0.925904 -10.1719
Neck  3.97569e-016 0 -2.38542e-015
Head  41.7927 -4.96399 -1.85802
R_Clavicle  -0.852801 -6.84219 -7.0306
R_UpperArm  33.972 24.0378 15.7814
R_Forearm  -21.7803 -51.7417 34.8413
R_Hand  -0.326455 10.2391 -14.6694
L_Clavicle  0.509638 5.00244 -6.64628
L_UpperArm  50.3396 -11.3365 -31.9255
L_Forearm  34.9393 10.3959 12.2212
L_Hand  -0.500584 1.87321 -7.57383
L_Thigh  -5.21126 -15.8967 -0.62705
L_Calf  3.21462 1.6436 -12.4141
L_Foot  12.9432 15.0755 26.0219
L_Toe0  4.40261 -1.78015 12.6721
R_Thigh  -14.4128 5.27371 34.5062
R_Calf  7.22174 6.81817 21.9199
R_Foot  1.96943 2.50785 -13.763
R_Toe0  -1.78666 -0.273342 -17.3224
419
root  6.23173 29.7989 1.8866 -39.5546 8.01854 91.7667
Spine  4.36453 17.3475 25.0336
Spine1  -2.59631 1.65545 -9.43952
Neck  3.97569e-016 0 -2.38542e-015
Head  49.1454 -5.01037 1.89933
R_Clavicle  -0.518547 -10.2492 -6.48475
R_UpperArm  36.5058 17.0429 18.3683
R_Forearm  -11.1967 -48.659 31.8404
R_Hand  -0.0462817 7.53908 -11.3404
L_Clavicle  0.353884 9.09017 -9.83465
L_UpperArm  50.025 -8.71139 -23.9924
L_Forearm  33.8739 13.4558 16.0344
L_Hand  -0.391876 1.42027 -6.29484
L_Thigh  -3.49959 -13.8525 -5.17134
L_Calf  11.0859 0.40298 -3.19638
L_Foot  11.2753 18.5617 17.9103
L_Toe0  6.12119 -2.36311 12.8802
R_Thigh  -18.4214 2.96899 27.347
R_Calf  4.46302 7.35199 23.6196
R_Foot  1.80181 4.28809 -8.26749
R_Toe0  -1.78675 -0.273381 -17.3225
420
root  5.79122 30.9843 1.25339 -33.1098 8.78377 90.9501
Spine  0.283723 14.4335 18.1055
Spine1  -4.44349 2.96457 -9.1347
Neck  3.97569e-016 0 -2.38542e-015
Head  54.0182 -4.58474 4.79566
R_Clavicle  -0.242654 -12.9074 -5.66907
R_UpperArm  38.501 9.86285 21.5941
R_Forearm  0.349994 -44.563 27.7974
R_Hand  0.198958 4.75329 -6.48956
L_Clavicle  0.0256132 12.0983 -10.342
L_UpperArm  48.0983 -5.62691 -16.554
L_Forearm  33.4178 13.6924 16.3364
L_Hand  -0.344308 1.63286 -5.33547
L_Thigh  -3.36053 -12.1799 -8.33013
L_Calf  19.5893 -0.456086 3.18752
L_Foot  7.02764 16.8613 8.03176
L_Toe0  11.7697 -4.16994 12.3099
R_Thigh  -17.026 2.14042 23.0515
R_Calf  1.26966 5.48544 17.2828
R_Foot  0.391261 -0.338617 -4.0325
R_Toe0  -1.78684 -0.27342 -17.3225
421
root  5.34069 31.7285 0.748852 -26.682 9.62599 89.9344
Spine  -2.58658 10.4267 12.5202
Spine1  -5.66532 4.90803 -8.57822
Neck  3.97569e-016 0 -2.38542e-015
Head  56.1422 -4.67322 6.46099
R_Clavicle  0.0873049 -16.1292 -3.8168
R_UpperArm  38.493 4.06407 25.6317
R_Forearm  8.75228 -41.4014 24.9707
R_Hand  0.16209 3.19262 -4.69842
L_Clavicle  0.020868 11.9869 -9.87978
L_UpperArm  45.2407 -1.56248 -11.8295
L_Forearm  33.6476 12.6075 14.9629
L_Hand  -0.218449 2.3962 -3.00603
L_Thigh  -4.04508 -11.4584 -9.55395
L_Calf  21.2038 -0.645283 4.64991
L_Foot  1.54374 8.26204 -1.65408
L_Toe0  17.4413 -6.27592 13.3553
R_Thigh  -10.8135 0.971713 20.8395
R_Calf  0.58836 2.4197 7.51135
R_Foot  0.402172 -0.241537 -4.06646
R_Toe0  -1.78694 -0.273458 -17.3226
422
root  4.90889 32.2474 0.384204 -20.4671 9.95655 89.3654
Spine  -4.02401 7.03907 7.96751
Spine1  -6.12007 7.09039 -7.48812
Neck  3.97569e-016 0 -2.38542e-015
Head  56.6587 -5.52044 7.32814
R_Clavicle  0.279753 -18.4544 -1.89299
R_UpperArm  36.1859 -1.75933 30.3108
R_Forearm  15.754 -36.9619 22.8765
R_Hand  0.00640083 2.68371 -5.73915
L_Clavicle  0.240226 9.36061 -8.43467
L_UpperArm  42.2142 3.259 -10.5353
L_Forearm  33.6979 11.0852 13.0694
L_Hand  -0.0357356 2.92581 -0.364176
L_Thigh  -5.88189 -11.1312 -10.3305
L_Calf  11.5606 -0.470232 3.36457
L_Foot  -0.196676 3.82918 -4.82834
L_Toe0  13.3323 -4.09338 9.43523
R_Thigh  -3.03699 0.255513 18.886
R_Calf  3.22133 0.272935 0.856973
R_Foot  0.541017 0.669146 -3.21873
R_Toe0  -1.78703 -0.273496 -17.3226
423
root  4.50225 32.6771 0.0918903 -14.9229 9.29125 89.9367
Spine  -4.51478 5.5409 3.8601
Spine1  -6.1665 8.50234 -6.59752
Neck  3.97569e-016 0 -2.38542e-015
Head  56.7408 -6.3461 8.81992
R_Clavicle  0.332674 -19.0171 -0.856167
R_UpperArm  31.4758 -8.51588 34.9799
R_Forearm  22.7446 -30.67 21.5637
R_Hand  -0.0316106 3.23152 -6.9753
L_Clavicle  0.329277 6.06672 -5.62101
L_UpperArm  39.4036 7.96105 -10.9313
L_Forearm  33.8776 9.06971 10.6134
L_Hand  0.0405874 3.32525 0.650313
L_Thigh  -8.30636 -10.2601 -11.3278
L_Calf  0.208293 -0.419267 2.93101
L_Foot  0.938023 7.21737 -3.17054
L_Toe0  3.2075 -0.135899 -1.54325
R_Thigh  3.46674 1.54976 17.6006
R_Calf  3.12778 0.045579 0.160247
R_Foot  0.551948 1.28162 -1.76682
R_Toe0  -1.78713 -0.273533 -17.3227
424
root  4.08217 32.9552 -0.157833 -9.82477 8.48981 91.4324
Spine  -5.03741 4.5901 -0.225847
Spine1  -6.37386 9.26321 -6.53283
Neck  3.97569e-016 0 -2.38542e-015
Head  56.6489 -6.5442 11.4047
R_Clavicle  0.344744 -19.2012 -0.619173
R_UpperArm  26.3153 -14.1238 39.6131
R_Forearm  27.0387 -26.3034 21.1096
R_Hand  -0.0148971 4.02091 -7.802
L_Clavicle  0.175189 4.5337 -2.97546
L_UpperArm  37.5221 10.59 -9.64092
L_Forearm  34.3986 6.23654 7.23791
L_Hand  0.0177416 4.05222 0.36098
L_Thigh  -9.40498 -9.54943 -12.6062
L_Calf  -1.39929 -0.696536 4.8979
L_Foot  1.4453 9.10217 -2.82027
L_Toe0  1.03772 0.0207075 -5.57501
R_Thigh  7.00644 3.89226 17.4538
R_Calf  -1.14343 1.66527 5.18262
R_Foot  0.679892 2.0508 -0.894741
R_Toe0  -1.78722 -0.273568 -17.3227
